<?xml version="1.0" encoding="utf-8"?>
<svg
    version="1.1"
    id="logo"
    xmlns="http://www.w3.org/2000/svg"
    xmlns:xlink="http://www.w3.org/1999/xlink"
    x="0px"
    y="0px"
    viewBox="0 0 72 72"
    style="enable-background:new 0 0 72 72;"
    xml:space="preserve">
    <path
        fill="#ffffff"
        d="M22.57,29.76c6.09,6.08,13.34,10.4,20.51,14.95c-0.47-9.21,3.25-11.62,11.45-7.91
        c7.52,3.4,11.1,9.75,12.1,17.51c0.75,5.89-4.28,11.86-10.4,12.52c-8.88,0.96-16.81-1.49-22.95-8.2C27.43,52.24,29,46.4,37.4,44.14
        c-5.55-3.93-11.44-6.87-16.4-12.82c0,4.54,0.2,7.93-0.05,11.28c-0.4,5.41-4.39,9.46-8.66,9.13c-3.93-0.3-7.28-4.85-7.3-9.88
        c-0.02-6.48,3.1-11.47,9.33-13.68c2.91-1.03,2.17-1.64,0.94-3.59c-2.82-4.48-5.26-9.22-3.81-14.86c0.51-1.99,1.68-3.55,3.21-4.9
        c1.72-1.52,3.18-0.48,4.43,0.51c1.44,1.15,0.54,2.45-0.42,3.4c-3.94,3.9-3.13,8.38-1.68,12.93c0.88,2.76,2.35,3.23,3.96,0.58
        c3.96-6.52,15.08-8.03,22.34-3.95c5,2.81,4.82,7.54-0.2,10.32c-5.62,3.11-11.48,2.55-17.38,1.11
        C24.95,29.53,23.57,29.42,22.57,29.76z M56.06,39.9c-2.55-2-6.07-3.64-8.38-0.63c-2.16,2.83-0.96,6.36,1.9,8.82
        c1.74,1.5,3.69,2.78,5.29,4.41c1.29,1.32,3.4,3.07,0.94,4.9c-2.3,1.72-3.64-0.5-4.69-2.11c-2.43-3.73-5.59-6.31-9.89-7.7
        c-2.67-0.86-4.51-0.02-6.2,1.8c-1.71,1.85-1.34,3.9-0.45,5.96c2.67,6.18,10.82,9.69,18.01,7.75c5.93-1.6,8.57-4.93,8.63-10.9
        C61.34,47.33,59.98,42.99,56.06,39.9z M38.42,26.34c1.68-0.74,2.82-1.76,2.6-3.73c-0.21-1.86-1.42-2.95-3.06-3.53
        c-2.75-0.96-5.59-0.79-8.31,0c-3.24,0.94-7.14,2.64-6.8,6.12c0.35,3.54,4.58,2.67,8.6,2.91C33.47,28.24,35.81,27.49,38.42,26.34z
        M16.43,30.48c-1.97-0.38-3.66,1.27-4.98,2.68c-3,3.18-4.1,7.1-3.43,11.38c0.52,3.34,3.1,4.27,5.7,2.13
        c3.48-2.86,4.22-6.85,4.33-11.26C18.05,35.41,18.37,30.86,16.43,30.48z"/>
</svg>
